<svg width="34" height="47" viewBox="0 0 34 47" fill="none" xmlns="http://www.w3.org/2000/svg">
<path d="M21.6906 1.13617C24.2302 1.77109 26.1668 2.89807 27.9445 4.73934C28.8652 5.72347 30.2302 7.51712 30.3414 7.94569C30.3731 8.07267 26.0239 10.9933 23.389 12.6282C23.2937 12.6917 22.9128 12.279 22.4842 11.6441C21.1985 9.77109 19.8493 8.96156 17.7858 8.81871C14.754 8.61236 12.8017 10.1997 12.8175 12.8505C12.8175 13.6282 12.9287 14.0886 13.2461 14.7235C13.9128 16.1044 15.1509 16.9298 19.0398 18.6124C26.1985 21.6917 29.262 23.7235 31.1668 26.6124C33.2937 29.8346 33.7699 34.9774 32.3255 38.8028C30.7382 42.9616 26.8017 45.787 21.262 46.7235C19.5477 47.0251 15.4842 46.9774 13.6429 46.6441C9.62706 45.9298 5.81754 43.9457 3.46834 41.3425C2.5477 40.3266 0.754051 37.6759 0.865162 37.4854C0.912781 37.4219 1.32548 37.1679 1.7858 36.8981C2.23024 36.6441 3.91278 35.6759 5.50008 34.7552L8.3731 33.0885L8.97628 33.9774C9.81755 35.2631 11.6588 37.0251 12.7699 37.6124C15.9604 39.2949 20.3414 39.0568 22.5001 37.1203C23.4207 36.279 23.8017 35.406 23.8017 34.1203C23.8017 32.9616 23.6588 32.4536 23.0556 31.5806C22.2779 30.4695 20.6906 29.533 16.1826 27.5806C11.0239 25.3584 8.80167 23.9774 6.76993 21.787C5.59532 20.5171 4.48421 18.4854 4.02389 16.787C3.64294 15.3743 3.5477 11.8346 3.84929 10.406C4.91278 5.42188 8.67469 1.94569 14.1033 0.913944C15.8652 0.580612 19.9604 0.7076 21.6906 1.13617Z" fill="white"/>
</svg>
