<svg width="135" height="12" viewBox="0 0 135 12" fill="none" xmlns="http://www.w3.org/2000/svg">
<path d="M8.07203 5.54C8.67203 5.73 9.14203 6.05 9.48203 6.5C9.82203 6.94 9.99203 7.485 9.99203 8.135C9.99203 9.055 9.63203 9.765 8.91203 10.265C8.20203 10.755 7.16203 11 5.79203 11H0.362027V0.499999H5.49203C6.77203 0.499999 7.75203 0.744999 8.43203 1.235C9.12203 1.725 9.46703 2.39 9.46703 3.23C9.46703 3.74 9.34203 4.195 9.09203 4.595C8.85203 4.995 8.51203 5.31 8.07203 5.54ZM2.77703 2.33V4.805H5.19203C5.79203 4.805 6.24703 4.7 6.55703 4.49C6.86703 4.28 7.02203 3.97 7.02203 3.56C7.02203 3.15 6.86703 2.845 6.55703 2.645C6.24703 2.435 5.79203 2.33 5.19203 2.33H2.77703ZM5.61203 9.17C6.25203 9.17 6.73203 9.065 7.05203 8.855C7.38203 8.645 7.54703 8.32 7.54703 7.88C7.54703 7.01 6.90203 6.575 5.61203 6.575H2.77703V9.17H5.61203ZM21.5275 8.75H16.6525L15.7225 11H13.2325L17.9125 0.499999H20.3125L25.0075 11H22.4575L21.5275 8.75ZM20.7625 6.905L19.0975 2.885L17.4325 6.905H20.7625ZM33.756 11.18C32.686 11.18 31.716 10.95 30.846 10.49C29.986 10.02 29.306 9.375 28.806 8.555C28.316 7.725 28.071 6.79 28.071 5.75C28.071 4.71 28.316 3.78 28.806 2.96C29.306 2.13 29.986 1.485 30.846 1.025C31.716 0.555 32.691 0.32 33.771 0.32C34.681 0.32 35.501 0.48 36.231 0.8C36.971 1.12 37.591 1.58 38.091 2.18L36.531 3.62C35.821 2.8 34.941 2.39 33.891 2.39C33.241 2.39 32.661 2.535 32.151 2.825C31.641 3.105 31.241 3.5 30.951 4.01C30.671 4.52 30.531 5.1 30.531 5.75C30.531 6.4 30.671 6.98 30.951 7.49C31.241 8 31.641 8.4 32.151 8.69C32.661 8.97 33.241 9.11 33.891 9.11C34.941 9.11 35.821 8.695 36.531 7.865L38.091 9.305C37.591 9.915 36.971 10.38 36.231 10.7C35.491 11.02 34.666 11.18 33.756 11.18ZM46.3377 6.875L44.9277 8.345V11H42.5127V0.499999H44.9277V5.405L49.5777 0.499999H52.2777L47.9277 5.18L52.5327 11H49.6977L46.3377 6.875ZM65.6007 2.48H62.2407V0.499999H71.3907V2.48H68.0307V11H65.6007V2.48ZM80.4173 11.18C79.3273 11.18 78.3423 10.945 77.4623 10.475C76.5923 10.005 75.9073 9.36 75.4073 8.54C74.9173 7.71 74.6723 6.78 74.6723 5.75C74.6723 4.72 74.9173 3.795 75.4073 2.975C75.9073 2.145 76.5923 1.495 77.4623 1.025C78.3423 0.555 79.3273 0.32 80.4173 0.32C81.5073 0.32 82.4873 0.555 83.3573 1.025C84.2273 1.495 84.9123 2.145 85.4123 2.975C85.9123 3.795 86.1623 4.72 86.1623 5.75C86.1623 6.78 85.9123 7.71 85.4123 8.54C84.9123 9.36 84.2273 10.005 83.3573 10.475C82.4873 10.945 81.5073 11.18 80.4173 11.18ZM80.4173 9.11C81.0373 9.11 81.5973 8.97 82.0973 8.69C82.5973 8.4 82.9873 8 83.2673 7.49C83.5573 6.98 83.7023 6.4 83.7023 5.75C83.7023 5.1 83.5573 4.52 83.2673 4.01C82.9873 3.5 82.5973 3.105 82.0973 2.825C81.5973 2.535 81.0373 2.39 80.4173 2.39C79.7973 2.39 79.2373 2.535 78.7373 2.825C78.2373 3.105 77.8423 3.5 77.5523 4.01C77.2723 4.52 77.1323 5.1 77.1323 5.75C77.1323 6.4 77.2723 6.98 77.5523 7.49C77.8423 8 78.2373 8.4 78.7373 8.69C79.2373 8.97 79.7973 9.11 80.4173 9.11ZM99.973 2.48H96.613V0.499999H105.763V2.48H102.403V11H99.973V2.48ZM114.79 11.18C113.7 11.18 112.715 10.945 111.835 10.475C110.965 10.005 110.28 9.36 109.78 8.54C109.29 7.71 109.045 6.78 109.045 5.75C109.045 4.72 109.29 3.795 109.78 2.975C110.28 2.145 110.965 1.495 111.835 1.025C112.715 0.555 113.7 0.32 114.79 0.32C115.88 0.32 116.86 0.555 117.73 1.025C118.6 1.495 119.285 2.145 119.785 2.975C120.285 3.795 120.535 4.72 120.535 5.75C120.535 6.78 120.285 7.71 119.785 8.54C119.285 9.36 118.6 10.005 117.73 10.475C116.86 10.945 115.88 11.18 114.79 11.18ZM114.79 9.11C115.41 9.11 115.97 8.97 116.47 8.69C116.97 8.4 117.36 8 117.64 7.49C117.93 6.98 118.075 6.4 118.075 5.75C118.075 5.1 117.93 4.52 117.64 4.01C117.36 3.5 116.97 3.105 116.47 2.825C115.97 2.535 115.41 2.39 114.79 2.39C114.17 2.39 113.61 2.535 113.11 2.825C112.61 3.105 112.215 3.5 111.925 4.01C111.645 4.52 111.505 5.1 111.505 5.75C111.505 6.4 111.645 6.98 111.925 7.49C112.215 8 112.61 8.4 113.11 8.69C113.61 8.97 114.17 9.11 114.79 9.11ZM129.687 0.499999C130.617 0.499999 131.422 0.654999 132.102 0.965C132.792 1.275 133.322 1.715 133.692 2.285C134.062 2.855 134.247 3.53 134.247 4.31C134.247 5.08 134.062 5.755 133.692 6.335C133.322 6.905 132.792 7.345 132.102 7.655C131.422 7.955 130.617 8.105 129.687 8.105H127.572V11H125.142V0.499999H129.687ZM129.552 6.125C130.282 6.125 130.837 5.97 131.217 5.66C131.597 5.34 131.787 4.89 131.787 4.31C131.787 3.72 131.597 3.27 131.217 2.96C130.837 2.64 130.282 2.48 129.552 2.48H127.572V6.125H129.552Z" fill="white"/>
</svg>
